<svg width="78" height="78" viewBox="0 0 78 78" fill="none" xmlns="http://www.w3.org/2000/svg">
<rect width="78" height="78" fill="#E1E1E1"/>
<path fill-rule="evenodd" clip-rule="evenodd" d="M37.7836 10C36.679 10 35.7836 10.8954 35.7836 12V18.8447H20.8984C19.7939 18.8447 18.8984 19.7402 18.8984 20.8447V23.2772C18.8984 24.3818 19.7939 25.2772 20.8984 25.2772H22.2967L25.1913 63.6305C25.2701 64.6737 26.1395 65.48 27.1856 65.48H51.6182C52.6644 65.48 53.5338 64.6737 53.6125 63.6305L56.5071 25.2772H57.1013C58.2059 25.2772 59.1013 24.3818 59.1013 23.2772V20.8447C59.1013 19.7402 58.2059 18.8447 57.1013 18.8447H42.2161V12C42.2161 10.8954 41.3206 10 40.2161 10H37.7836Z" fill="#FAF7F7"/>
</svg>
